$MeshFormat
4.1 0 8
$EndMeshFormat
$PhysicalNames
5
1 10 "gauche"
1 11 "haut"
1 12 "droite"
1 13 "bas"
2 9 "Elements"
$EndPhysicalNames
$Entities
8 8 2 0
1 0 0 0 0 
2 1 0 0 0 
3 1 1 0 0 
4 0 1 0 0 
5 0 0 0 0 
6 1 0 0 0 
7 1 1 0 0 
8 0 1 0 0 
1 -9.999999994736442e-08 -1e-07 -1e-07 1.0000001 1e-07 1e-07 1 13 2 1 -2 
2 0.9999999000000001 -9.999999994736442e-08 -1e-07 1.0000001 1.0000001 1e-07 1 12 2 2 -3 
3 -9.999999994736442e-08 0.9999999000000001 -1e-07 1.0000001 1.0000001 1e-07 1 11 2 3 -4 
4 -1e-07 -9.999999994736442e-08 -1e-07 1e-07 1.0000001 1e-07 1 10 2 4 -1 
5 -9.999999994736442e-08 -1e-07 -1e-07 1.0000001 1e-07 1e-07 0 2 5 -6 
6 0.9999999000000001 -9.999999994736442e-08 -1e-07 1.0000001 1.0000001 1e-07 0 2 6 -7 
7 -9.999999994736442e-08 0.9999999000000001 -1e-07 1.0000001 1.0000001 1e-07 0 2 7 -8 
8 -1e-07 -9.999999994736442e-08 -1e-07 1e-07 1.0000001 1e-07 0 2 8 -5 
1 -9.999999994736442e-08 -9.999999994736442e-08 -1e-07 1.0000001 1.0000001 1e-07 1 9 4 1 2 3 4 
2 -9.999999994736442e-08 -9.999999994736442e-08 -1e-07 1.0000001 1.0000001 1e-07 0 4 5 6 7 8 
$EndEntities
$Nodes
9 357 1 357
0 1 0 1
1
0 0 0
0 2 0 1
2
1 0 0
0 3 0 1
3
1 1 0
0 4 0 1
4
0 1 0
1 1 0 15
5
6
7
8
9
10
11
12
13
14
15
16
17
18
19
0.06249999999999992 0 0
0.1249999999999998 0 0
0.1874999999999998 0 0
0.2499999999999998 0 0
0.3124999999999996 0 0
0.3749999999999994 0 0
0.4374999999999991 0 0
0.4999999999999988 0 0
0.5624999999999988 0 0
0.6249999999999988 0 0
0.687499999999999 0 0
0.7499999999999991 0 0
0.8124999999999993 0 0
0.8749999999999994 0 0
0.9374999999999997 0 0
1 2 0 15
20
21
22
23
24
25
26
27
28
29
30
31
32
33
34
1 0.06249999999999992 0
1 0.1249999999999998 0
1 0.1874999999999998 0
1 0.2499999999999998 0
1 0.3124999999999996 0
1 0.3749999999999994 0
1 0.4374999999999991 0
1 0.4999999999999988 0
1 0.5624999999999988 0
1 0.6249999999999988 0
1 0.687499999999999 0
1 0.7499999999999991 0
1 0.8124999999999993 0
1 0.8749999999999994 0
1 0.9374999999999997 0
1 3 0 15
35
36
37
38
39
40
41
42
43
44
45
46
47
48
49
0.9375000000000001 1 0
0.8750000000000001 1 0
0.8125000000000002 1 0
0.7500000000000002 1 0
0.6875000000000004 1 0
0.6250000000000007 1 0
0.5625000000000009 1 0
0.5000000000000011 1 0
0.4375000000000012 1 0
0.3750000000000012 1 0
0.312500000000001 1 0
0.2500000000000009 1 0
0.1875000000000007 1 0
0.1250000000000006 1 0
0.06250000000000033 1 0
1 4 0 15
50
51
52
53
54
55
56
57
58
59
60
61
62
63
64
0 0.9375000000000001 0
0 0.8750000000000001 0
0 0.8125000000000002 0
0 0.7500000000000002 0
0 0.6875000000000004 0
0 0.6250000000000007 0
0 0.5625000000000009 0
0 0.5000000000000011 0
0 0.4375000000000012 0
0 0.3750000000000012 0
0 0.312500000000001 0
0 0.2500000000000009 0
0 0.1875000000000007 0
0 0.1250000000000006 0
0 0.06250000000000033 0
2 1 0 293
65
66
67
68
69
70
71
72
73
74
75
76
77
78
79
80
81
82
83
84
85
86
87
88
89
90
91
92
93
94
95
96
97
98
99
100
101
102
103
104
105
106
107
108
109
110
111
112
113
114
115
116
117
118
119
120
121
122
123
124
125
126
127
128
129
130
131
132
133
134
135
136
137
138
139
140
141
142
143
144
145
146
147
148
149
150
151
152
153
154
155
156
157
158
159
160
161
162
163
164
165
166
167
168
169
170
171
172
173
174
175
176
177
178
179
180
181
182
183
184
185
186
187
188
189
190
191
192
193
194
195
196
197
198
199
200
201
202
203
204
205
206
207
208
209
210
211
212
213
214
215
216
217
218
219
220
221
222
223
224
225
226
227
228
229
230
231
232
233
234
235
236
237
238
239
240
241
242
243
244
245
246
247
248
249
250
251
252
253
254
255
256
257
258
259
260
261
262
263
264
265
266
267
268
269
270
271
272
273
274
275
276
277
278
279
280
281
282
283
284
285
286
287
288
289
290
291
292
293
294
295
296
297
298
299
300
301
302
303
304
305
306
307
308
309
310
311
312
313
314
315
316
317
318
319
320
321
322
323
324
325
326
327
328
329
330
331
332
333
334
335
336
337
338
339
340
341
342
343
344
345
346
347
348
349
350
351
352
353
354
355
356
357
0.5624999999999989 0.1082531754730547 0
0.8787408590474763 0.5688788296333867 0
0.4375000000000012 0.8917468245269454 0
0.1107249391757801 0.435905136893771 0
0.3098918535636472 0.107015042609639 0
0.8917468245269455 0.3124999999999996 0
0.6871891340151978 0.8955068139135627 0
0.1182626851017918 0.6692259739230111 0
0.1094851921887066 0.2033420655976695 0
0.8119703288398898 0.1058465056319792 0
0.1875000000000007 0.8917468245269449 0
0.879230463236312 0.8130906423764597 0
0.687411721473314 0.1078520638328755 0
0.6222382678779044 0.2148535068271494 0
0.4995397113129832 0.2162308769262824 0
0.5592159774975001 0.3228521478837691 0
0.4350399505186865 0.3232496269229518 0
0.4995115585047765 0.4327221170255846 0
0.6130571419252586 0.4327008212914639 0
0.5569896182521401 0.5431506844806554 0
0.4365001961261519 0.5415315810733969 0
0.4989149690630473 0.6498774713089112 0
0.6204622660663318 0.6518781417959358 0
0.3748733700916654 0.6495569611339234 0
0.3123122610363024 0.5413164793658921 0
0.5624999999999977 0.757772228311381 0
0.2499999999999991 0.6495190528383261 0
0.3133176815799776 0.7523710733550599 0
0.6858813604038472 0.7503445567222475 0
0.7558138451570436 0.6422638761822286 0
0.1875710532781786 0.5449975168824135 0
0.2499999999999993 0.4330127018922173 0
0.1778732193721211 0.3232140480521862 0
0.3014840143016393 0.317882981997115 0
0.237568194167872 0.2131232466900195 0
0.7646672502010369 0.2290660061068141 0
0.891746824526945 0.6874999999999991 0
0.7774226411965255 0.5265527835888374 0
0.8628769461960453 0.4382017528180521 0
0.7819074654780986 0.3451910717748128 0
0.3125000000000009 0.891746824526945 0
0.4369885941461045 0.1080009076591809 0
0.371489561667968 0.2148949910804583 0
0.5625000000000009 0.8917468245269455 0
0.3724746634145927 0.431619248046193 0
0.4374999999999982 0.7577722283113807 0
0.8959004857786097 0.1879321779033213 0
0.8081462788186125 0.9070743513265296 0
0.1034157830572141 0.8066379931605242 0
0.191133356128487 0.1028269135594176 0
0.7923273839860846 0.74371081557924 0
0.2010889394410994 0.7499266504670599 0
0.6739266620600561 0.3223988573944038 0
0.08453570123751092 0.5625000000000009 0
0.671840423222428 0.54227566419079 0
0.07733755452579338 0.3125000000000011 0
0.09150635094610993 0.09150635094611009 0
0.90849364905389 0.09150635094610993 0
0.09150635094611009 0.9084936490538901 0
0.9084936490538901 0.90849364905389 0
0.7301718800130687 0.43455349184306 0
0.3750000000000013 0.8247595264191645 0
0.5000000000000011 0.8247595264191648 0
0.6250000000000006 0.8247595264191649 0
0.2601608324359393 0.824693229215303 0
0.7489644266062752 0.8253550026152656 0
0.8302838679898232 0.2084990920050677 0
0.8938236551527776 0.2502160889516604 0
0.8282070373639913 0.2707830030534069 0
0.8368271450025221 0.3288455358874062 0
0.7732873578395678 0.2871285389408135 0
0.8852438417872106 0.6281894148166929 0
0.8237803348419943 0.6648819380911137 0
0.81727735210226 0.6055713529078076 0
0.1529168691899853 0.6071117454027123 0
0.2187855266390889 0.5972582848603698 0
0.1841313425508955 0.6593725133806686 0
0.7666182431767845 0.5844083298855329 0
0.8280817501220009 0.5477158066111121 0
0.1013991931696514 0.615862986961506 0
0.1360533772578448 0.5537487584412072 0
0.9314384730980226 0.4691008764090255 0
0.9314384730980226 0.4066008764090258 0
0.1735266931782893 0.2082326561438445 0
0.2077207067699965 0.2681686473711029 0
0.1436792057804138 0.2632780568249279 0
0.3406907076158076 0.1609550168450486 0
0.30452887791792 0.2140091188852389 0
0.2737300238657596 0.1600691446498292 0
0.1276053869489572 0.3178570240260937 0
0.09341137335724997 0.2579210327988353 0
0.8773118853614954 0.3753508764090259 0
0.9458734122634728 0.3437499999999995 0
0.8708089026217608 0.5035402912257194 0
0.9393704295237382 0.5344394148166928 0
0.1442990792739506 0.3795595924729786 0
0.2139366096860602 0.3781133749722018 0
0.1803624695878897 0.4344589193929941 0
0.218785526639089 0.4890051093873155 0
0.1491479962269794 0.4904513268880922 0
0.4037573069666396 0.3774344374845724 0
0.336979338858116 0.374751115021654 0
0.3682619824101629 0.3205663044600334 0
0.3364867879848036 0.2663889865387866 0
0.2695261042347556 0.2655031143435673 0
0.8539354073092498 0.1468893417676502 0
0.7883187895204633 0.1674562558693966 0
0.8201497936962854 0.4823772682034448 0
0.3112373317072959 0.4323159749692052 0
0.2757420071508193 0.3754478419446662 0
0.4032647560933272 0.269072309001705 0
0.7537972606047971 0.4805531377159487 0
0.796524413104557 0.436377622330556 0
0.7560396727455836 0.3898722818089364 0
0.822392205837072 0.3916964122964325 0
0.8420371042565148 0.7156054077896196 0
0.7740706145715641 0.6929873458807343 0
0.2255444697205493 0.699722851652693 0
0.1596758122714456 0.7095763121950354 0
0.2396786168368802 0.3205485150246506 0
0.1522523612491568 0.778282321813792 0
0.1942944697205501 0.8208367374970024 0
0.1454578915286074 0.8491924088437346 0
0.2306248859385194 0.7873099398411814 0
0.22383041621797 0.858220026871124 0
0.7279170637690774 0.3337949645846083 0
0.7192969561305464 0.275732431750609 0
0.2143507751481795 0.1579750801247186 0
0.2505126048460671 0.1049209780845283 0
0.9458734122634724 0.6562499999999989 0
0.9393704295237382 0.5969394148166927 0
0.7260394858371755 0.1684590349698448 0
0.6934527590394706 0.2219597564669817 0
0.6548249946756093 0.1613527853300125 0
0.6562058607366564 0.05392603191643774 0
0.6249558607366564 0.1080526196529651 0
0.5937499999999989 0.05412658773652734 0
0.5923691339389516 0.1615533411501021 0
0.7187058607366565 0.05392603191643774 0
0.9458734122634724 0.7187499999999991 0
0.3437500000000011 0.9458734122634724 0
0.3750000000000011 0.8917468245269452 0
0.4062500000000012 0.9458734122634727 0
0.7496910251566019 0.1068492847324273 0
0.7809851644199445 0.05292325281598959 0
0.2812500000000009 0.9458734122634724 0
0.4059942970730519 0.05400045382959046 0
0.3734402238548759 0.1075079751344099 0
0.3424459267818233 0.05350752130481951 0
0.5312499999999989 0.05412658773652734 0
0.8854886438816285 0.7502953211882294 0
0.9396152316181561 0.7815453211882294 0
0.4044874297703722 0.486575414559795 0
0.4359931109596846 0.4321706825358888 0
0.4680058773154642 0.4871268490494908 0
0.9458734122634728 0.2812499999999997 0
0.3435928155639839 0.5954367202499077 0
0.3744062285812271 0.5414240302196446 0
0.4056867831089087 0.5955442711036601 0
0.1562500000000007 0.9458734122634724 0
0.2187500000000008 0.9458734122634724 0
0.2500000000000008 0.8917468245269449 0
0.4355146364904756 0.2155629340033703 0
0.4042390779070362 0.1614479493698196 0
0.4682641527295439 0.1621158922927317 0
0.4997442970730517 0.1081270415661178 0
0.4684942970730517 0.05400045382959046 0
0.05536246958789004 0.4054525684468861 0
0.05536246958789004 0.467952568446886 0
0.4672898309158349 0.2697402519246171 0
0.05474259609435328 0.164171032798835 0
0.05474259609435328 0.2266710327988352 0
0.5608889895954439 0.2155421918767159 0
0.5310198556564911 0.1622420261996685 0
0.2799459267818235 0.05350752130481951 0
0.4687500000000012 0.9458734122634727 0
0.5907271226877022 0.2688528273554593 0
0.5293778444052416 0.2695415124050258 0
0.4672757545117315 0.3779858719742682 0
0.5850233800886994 0.4879257528860596 0
0.5282505883784583 0.48793640075312 0
0.5562843502150175 0.4327114691585242 0
0.3423934622254475 0.4864678637060426 0
0.3124366850458323 0.6495380069861247 0
0.2811561305181507 0.5954177661021092 0
0.9396152316181561 0.8440453211882296 0
0.2811561305181508 0.4871645906290547 0
0.8434851644199446 0.05292325281598959 0
0.5861365597113792 0.3777764845876165 0
0.5293637680011383 0.3777871324546769 0
0.496744907189146 0.5423411327770262 0
0.5914811330331647 0.7048251850536584 0
0.5307074845315225 0.703824849810146 0
0.5596886175646896 0.6508778065524234 0
0.6560945670075992 0.9477534069567813 0
0.718594567007599 0.9477534069567813 0
0.531250000000001 0.9458734122634728 0
0.5937500000000008 0.9458734122634728 0
0.500000000000001 0.8917468245269455 0
0.4971279640080933 0.3230508874033605 0
0.5887259421592359 0.5975144131382956 0
0.5279522936575937 0.5965140778947833 0
0.4368941695773564 0.6497172162214172 0
0.4677075825945996 0.5957045261911541 0
0.2499416571572405 0.5431569981241529 0
0.05913134255089592 0.6471129869615058 0
0.05913134255089592 0.7096129869615057 0
0.6881380556116877 0.6470710089890821 0
0.7208476027804454 0.6963042164522379 0
0.6531718132350894 0.7011113492590917 0
0.6248445670075993 0.8936268192202541 0
0.6241906802019224 0.7540583925168143 0
0.4061866850458318 0.703664594722652 0
0.3754088407899879 0.7550716508332204 0
0.3440955258358215 0.7009640172444916 0
0.4999999999999979 0.7577722283113808 0
0.4682074845315227 0.7038248498101459 0
0.2816588407899884 0.7009450630966931 0
0.7138271341897358 0.5922697701865093 0
0.7246315322094767 0.5344142238898137 0
0.7785553527124438 0.8662146769708976 0
0.8140974449212937 0.8192228224958626 0
0.8436883710274623 0.8600824968514946 0
0.7706459052961799 0.7845329090972528 0
0.8357789236111983 0.7784007289778498 0
0.7790731394093063 0.9535371756632648 0
0.8415731394093063 0.9535371756632648 0
0.051707891528607 0.7783189965802622 0
0.051707891528607 0.8408189965802622 0
0.9479502428893049 0.2189660889516605 0
0.9479502428893049 0.1564660889516606 0
0.09763032020664553 0.4992025684468859 0
0.2205666780642434 0.05141345677970882 0
0.1580666780642435 0.05141345677970882 0
0.09403124685078673 0.374202568446886 0
0.1108392340795029 0.7379319835417677 0
0.7476677064169052 0.9012905826200461 0
0.6716145109691636 0.4336271565672619 0
0.7010061516177484 0.488414578016925 0
0.6424487825738433 0.4874882427411269 0
0.1503092741585968 0.1530844895785436 0
0.6480824649689803 0.2686261821107766 0
0.6165713197787781 0.3226255026390865 0
0.6434919019926574 0.3775498393429338 0
0.04226785061875549 0.531250000000001 0
0.04226785061875549 0.5937500000000008 0
0.614415020737284 0.5427131743357226 0
0.6461513446443798 0.5970769029933629 0
0.03866877726289669 0.281250000000001 0
0.03866877726289669 0.3437500000000012 0
0.04575317547305496 0.04575317547305502 0
0.04575317547305496 0.1082531754730554 0
0.04575317547305502 0.9542468245269451 0
0.1082531754730554 0.9542468245269451 0
0.9542468245269451 0.954246824526945 0
0.9542468245269451 0.8917468245269446 0
0.1082531754730549 0.04575317547305502 0
0.954246824526945 0.04575317547305496 0
0.8917468245269446 0.04575317547305496 0
0.954246824526945 0.1082531754730549 0
0.04575317547305502 0.8917468245269451 0
0.8917468245269451 0.954246824526945 0
0.7020492710365625 0.378476174618732 0
0.7391043721949658 0.7470276861507438 0
0.2572033105105385 0.7511488619110599 0
0.9021970674162498 0.1397192644247156 0
0.8583199639362513 0.9077840001902098 0
0.09746106700166207 0.8575658211072071 0
0.1395031754730554 0.9001202367904175 0
0.8602319889468899 0.09867642828904455 0
0.8938620561451011 0.8607921457151748 0
0.1004957715674082 0.1474242082718898 0
0.1413198535372985 0.0971666322527639 0
0.3175804162179703 0.8247263778172337 0
0.2867392570079584 0.7885321512851815 0
0.3441588407899895 0.7885652998871122 0
0.4687499999999996 0.7912658773652728 0
0.4375000000000012 0.8247595264191646 0
0.4062499999999998 0.7912658773652725 0
0.3437500000000011 0.8582531754730547 0
0.4062500000000013 0.8582531754730549 0
0.5937499999999991 0.791265877365273 0
0.5625000000000009 0.8247595264191649 0
0.5312499999999993 0.791265877365273 0
0.4687500000000012 0.8582531754730551 0
0.531250000000001 0.8582531754730552 0
0.6554406802019239 0.7875520415707062 0
0.5937500000000008 0.8582531754730552 0
0.6560945670075992 0.8601331701663638 0
0.2863304162179701 0.858220026871124 0
0.7174228935050612 0.7878497796687566 0
0.6869822133031379 0.8250572645172153 0
0.7180767803107365 0.8604309082644142 0
$EndNodes
$Elements
5 712 1 712
1 1 1 16
1 1 5 
2 5 6 
3 6 7 
4 7 8 
5 8 9 
6 9 10 
7 10 11 
8 11 12 
9 12 13 
10 13 14 
11 14 15 
12 15 16 
13 16 17 
14 17 18 
15 18 19 
16 19 2 
1 2 1 16
17 2 20 
18 20 21 
19 21 22 
20 22 23 
21 23 24 
22 24 25 
23 25 26 
24 26 27 
25 27 28 
26 28 29 
27 29 30 
28 30 31 
29 31 32 
30 32 33 
31 33 34 
32 34 3 
1 3 1 16
33 3 35 
34 35 36 
35 36 37 
36 37 38 
37 38 39 
38 39 40 
39 40 41 
40 41 42 
41 42 43 
42 43 44 
43 44 45 
44 45 46 
45 46 47 
46 47 48 
47 48 49 
48 49 4 
1 4 1 16
49 4 50 
50 50 51 
51 51 52 
52 52 53 
53 53 54 
54 54 55 
55 55 56 
56 56 57 
57 57 58 
58 58 59 
59 59 60 
60 60 61 
61 61 62 
62 62 63 
63 63 64 
64 64 1 
2 1 2 648
65 100 131 133 
66 131 132 133 
67 131 111 132 
68 133 132 70 
69 70 134 133 
70 134 135 133 
71 134 104 135 
72 133 135 100 
73 66 136 138 
74 136 137 138 
75 136 101 137 
76 138 137 94 
77 72 139 141 
78 139 140 141 
79 139 95 140 
80 141 140 91 
81 94 142 138 
82 142 143 138 
83 142 102 143 
84 138 143 66 
85 72 144 139 
86 144 145 139 
87 144 118 145 
88 139 145 95 
89 27 146 26 
90 146 147 26 
91 146 103 147 
92 26 147 25 
93 73 148 150 
94 148 149 150 
95 148 99 149 
96 150 149 97 
97 69 151 153 
98 151 152 153 
99 151 107 152 
100 153 152 99 
101 97 154 150 
102 154 155 150 
103 154 120 155 
104 150 155 73 
105 25 147 157 
106 147 156 157 
107 147 103 156 
108 157 156 70 
109 66 158 159 
110 158 146 159 
111 158 103 146 
112 159 146 27 
113 68 160 162 
114 160 161 162 
115 160 97 161 
116 162 161 96 
117 68 162 164 
118 162 163 164 
119 162 96 163 
120 164 163 95 
121 81 165 167 
122 165 166 167 
123 165 109 166 
124 167 166 98 
125 99 152 169 
126 152 168 169 
127 152 107 168 
128 169 168 98 
129 74 170 171 
130 170 131 171 
131 170 111 131 
132 171 131 100 
133 102 172 143 
134 172 158 143 
135 172 103 158 
136 143 158 66 
137 98 166 174 
138 166 173 174 
139 166 109 173 
140 174 173 96 
141 98 168 167 
142 168 175 167 
143 168 107 175 
144 167 175 81 
145 102 176 172 
146 176 177 172 
147 176 125 177 
148 172 177 103 
149 103 177 179 
150 177 178 179 
151 177 125 178 
152 179 178 104 
153 101 180 137 
154 180 181 137 
155 180 115 181 
156 137 181 94 
157 91 182 141 
158 182 183 141 
159 182 116 183 
160 141 183 72 
161 97 184 161 
162 184 174 161 
163 184 98 174 
164 161 174 96 
165 113 185 187 
166 185 186 187 
167 185 116 186 
168 187 186 75 
169 116 188 186 
170 188 189 186 
171 188 129 189 
172 186 189 75 
173 104 190 135 
174 190 191 135 
175 190 117 191 
176 135 191 100 
177 103 179 156 
178 179 134 156 
179 179 104 134 
180 156 134 70 
181 97 149 184 
182 149 169 184 
183 149 99 169 
184 184 169 98 
185 99 192 153 
186 192 193 153 
187 192 114 193 
188 153 193 69 
189 29 194 195 
190 194 136 195 
191 194 101 136 
192 195 136 66 
193 77 196 198 
194 196 197 198 
195 196 100 197 
196 198 197 78 
197 14 199 201 
198 199 200 201 
199 199 77 200 
200 201 200 65 
201 77 198 200 
202 198 202 200 
203 198 78 202 
204 200 202 65 
205 16 203 15 
206 203 199 15 
207 203 77 199 
208 15 199 14 
209 31 204 30 
210 204 194 30 
211 204 101 194 
212 30 194 29 
213 44 205 207 
214 205 206 207 
215 205 105 206 
216 207 206 67 
217 74 208 209 
218 208 203 209 
219 208 77 203 
220 209 203 16 
221 46 210 45 
222 210 205 45 
223 210 105 205 
224 45 205 44 
225 10 211 213 
226 211 212 213 
227 211 106 212 
228 213 212 69 
229 14 201 13 
230 201 214 13 
231 201 65 214 
232 13 214 12 
233 76 215 216 
234 215 204 216 
235 215 101 204 
236 216 204 31 
237 74 171 208 
238 171 196 208 
239 171 100 196 
240 208 196 77 
241 29 195 28 
242 195 159 28 
243 195 66 159 
244 28 159 27 
245 85 217 219 
246 217 218 219 
247 217 109 218 
248 219 218 82 
249 25 157 24 
250 157 220 24 
251 157 70 220 
252 24 220 23 
253 88 221 223 
254 221 222 223 
255 221 89 222 
256 223 222 85 
257 48 224 47 
258 224 225 47 
259 224 75 225 
260 47 225 46 
261 75 226 225 
262 226 210 225 
263 226 105 210 
264 225 210 46 
265 79 227 229 
266 227 228 229 
267 227 107 228 
268 229 228 106 
269 65 230 214 
270 230 231 214 
271 230 106 231 
272 214 231 12 
273 59 232 58 
274 232 233 58 
275 232 68 233 
276 58 233 57 
277 106 228 212 
278 228 151 212 
279 228 107 151 
280 212 151 69 
281 81 175 234 
282 175 227 234 
283 175 107 227 
284 234 227 79 
285 12 231 11 
286 231 211 11 
287 231 106 211 
288 11 211 10 
289 63 235 62 
290 235 236 62 
291 235 73 236 
292 62 236 61 
293 78 237 202 
294 237 238 202 
295 237 79 238 
296 202 238 65 
297 10 213 9 
298 213 239 9 
299 213 69 239 
300 9 239 8 
301 44 207 43 
302 207 240 43 
303 207 67 240 
304 43 240 42 
305 78 241 237 
306 241 242 237 
307 241 80 242 
308 237 242 79 
309 82 218 243 
310 218 165 243 
311 218 109 165 
312 243 165 81 
313 83 244 246 
314 244 245 246 
315 244 84 245 
316 246 245 82 
317 89 247 222 
318 247 217 222 
319 247 109 217 
320 222 217 85 
321 88 248 221 
322 248 249 221 
323 248 91 249 
324 221 249 89 
325 33 250 32 
326 250 216 32 
327 250 76 216 
328 32 216 31 
329 96 173 251 
330 173 247 251 
331 173 109 247 
332 251 247 89 
333 18 252 17 
334 252 209 17 
335 252 74 209 
336 17 209 16 
337 79 229 238 
338 229 230 238 
339 229 106 230 
340 238 230 65 
341 80 253 254 
342 253 246 254 
343 253 83 246 
344 254 246 82 
345 84 255 245 
346 255 219 245 
347 255 85 219 
348 245 219 82 
349 87 256 258 
350 256 257 258 
351 256 90 257 
352 258 257 86 
353 40 259 39 
354 259 260 39 
355 259 71 260 
356 39 260 38 
357 42 261 41 
358 261 262 41 
359 261 108 262 
360 41 262 40 
361 67 263 240 
362 263 261 240 
363 263 108 261 
364 240 261 42 
365 80 264 242 
366 264 234 242 
367 264 81 234 
368 242 234 79 
369 84 265 266 
370 265 258 266 
371 265 87 258 
372 266 258 86 
373 86 267 268 
374 267 223 268 
375 267 88 223 
376 268 223 85 
377 95 163 269 
378 163 251 269 
379 163 96 251 
380 269 251 89 
381 55 270 54 
382 270 271 54 
383 270 72 271 
384 54 271 53 
385 84 266 255 
386 266 268 255 
387 266 86 268 
388 255 268 85 
389 91 140 249 
390 140 269 249 
391 140 95 269 
392 249 269 89 
393 80 254 264 
394 254 243 264 
395 254 82 243 
396 264 243 81 
397 87 272 274 
398 272 273 274 
399 272 94 273 
400 274 273 93 
401 40 262 259 
402 262 275 259 
403 262 108 275 
404 259 275 71 
405 87 274 256 
406 274 276 256 
407 274 93 276 
408 256 276 90 
409 88 277 279 
410 277 278 279 
411 277 110 278 
412 279 278 92 
413 90 280 257 
414 280 281 257 
415 280 110 281 
416 257 281 86 
417 86 281 267 
418 281 277 267 
419 281 110 277 
420 267 277 88 
421 88 279 248 
422 279 282 248 
423 279 92 282 
424 248 282 91 
425 94 283 142 
426 283 284 142 
427 283 119 284 
428 142 284 102 
429 112 285 287 
430 285 286 287 
431 285 130 286 
432 287 286 76 
433 76 286 289 
434 286 288 289 
435 286 130 288 
436 289 288 115 
437 38 290 37 
438 290 291 37 
439 290 112 291 
440 37 291 36 
441 53 292 52 
442 292 293 52 
443 292 113 293 
444 52 293 51 
445 23 294 22 
446 294 295 22 
447 294 111 295 
448 22 295 21 
449 95 145 164 
450 145 296 164 
451 145 118 296 
452 164 296 68 
453 8 297 7 
454 297 298 7 
455 297 114 298 
456 7 298 6 
457 69 193 239 
458 193 297 239 
459 193 114 297 
460 239 297 8 
461 68 299 160 
462 299 154 160 
463 299 120 154 
464 160 154 97 
465 70 132 220 
466 132 294 220 
467 132 111 294 
468 220 294 23 
469 72 300 271 
470 300 292 271 
471 300 113 292 
472 271 292 53 
473 71 301 260 
474 301 290 260 
475 301 112 290 
476 260 290 38 
477 83 302 304 
478 302 303 304 
479 302 125 303 
480 304 303 119 
481 73 305 148 
482 305 192 148 
483 305 114 192 
484 148 192 99 
485 100 191 197 
486 191 306 197 
487 191 117 306 
488 197 306 78 
489 80 307 253 
490 307 308 253 
491 307 117 308 
492 253 308 83 
493 68 296 233 
494 296 309 233 
495 296 118 309 
496 233 309 57 
497 55 310 270 
498 310 144 270 
499 310 118 144 
500 270 144 72 
501 83 304 244 
502 304 311 244 
503 304 119 311 
504 244 311 84 
505 87 312 272 
506 312 283 272 
507 312 119 283 
508 272 283 94 
509 73 155 236 
510 155 313 236 
511 155 120 313 
512 236 313 61 
513 59 314 232 
514 314 299 232 
515 314 120 299 
516 232 299 68 
517 1 315 64 
518 315 316 64 
519 315 121 316 
520 64 316 63 
521 4 317 49 
522 317 318 49 
523 317 123 318 
524 49 318 48 
525 3 319 34 
526 319 320 34 
527 319 124 320 
528 34 320 33 
529 6 321 5 
530 321 315 5 
531 321 121 315 
532 5 315 1 
533 2 322 19 
534 322 323 19 
535 322 122 323 
536 19 323 18 
537 21 324 20 
538 324 322 20 
539 324 122 322 
540 20 322 2 
541 51 325 50 
542 325 317 50 
543 325 123 317 
544 50 317 4 
545 36 326 35 
546 326 319 35 
547 326 124 319 
548 35 319 3 
549 117 327 308 
550 327 302 308 
551 327 125 302 
552 308 302 83 
553 76 289 215 
554 289 180 215 
555 289 115 180 
556 215 180 101 
557 94 181 273 
558 181 328 273 
559 181 115 328 
560 273 328 93 
561 92 329 282 
562 329 182 282 
563 329 116 182 
564 282 182 91 
565 119 303 284 
566 303 176 284 
567 303 125 176 
568 284 176 102 
569 78 306 241 
570 306 307 241 
571 306 117 307 
572 241 307 80 
573 72 183 300 
574 183 185 300 
575 183 116 185 
576 300 185 113 
577 57 309 56 
578 309 310 56 
579 309 118 310 
580 56 310 55 
581 84 311 265 
582 311 312 265 
583 311 119 312 
584 265 312 87 
585 104 178 190 
586 178 327 190 
587 178 125 327 
588 190 327 117 
589 111 330 295 
590 330 324 295 
591 330 122 324 
592 295 324 21 
593 112 331 291 
594 331 326 291 
595 331 124 326 
596 291 326 36 
597 113 332 293 
598 332 325 293 
599 332 123 325 
600 293 325 51 
601 61 313 60 
602 313 314 60 
603 313 120 314 
604 60 314 59 
605 48 318 224 
606 318 333 224 
607 318 123 333 
608 224 333 75 
609 18 323 252 
610 323 334 252 
611 323 122 334 
612 252 334 74 
613 33 320 250 
614 320 335 250 
615 320 124 335 
616 250 335 76 
617 63 316 235 
618 316 336 235 
619 316 121 336 
620 235 336 73 
621 114 337 298 
622 337 321 298 
623 337 121 321 
624 298 321 6 
625 126 338 340 
626 338 339 340 
627 338 129 339 
628 340 339 92 
629 110 341 343 
630 341 342 343 
631 341 127 342 
632 343 342 126 
633 105 344 206 
634 344 345 206 
635 344 126 345 
636 206 345 67 
637 90 346 348 
638 346 347 348 
639 346 128 347 
640 348 347 127 
641 90 348 280 
642 348 341 280 
643 348 127 341 
644 280 341 110 
645 67 349 263 
646 349 350 263 
647 349 127 350 
648 263 350 108 
649 126 342 345 
650 342 349 345 
651 342 127 349 
652 345 349 67 
653 110 343 278 
654 343 340 278 
655 343 126 340 
656 278 340 92 
657 93 351 276 
658 351 346 276 
659 351 128 346 
660 276 346 90 
661 127 347 350 
662 347 352 350 
663 347 128 352 
664 350 352 108 
665 108 352 275 
666 352 353 275 
667 352 128 353 
668 275 353 71 
669 105 354 344 
670 354 338 344 
671 354 129 338 
672 344 338 126 
673 75 189 226 
674 189 354 226 
675 189 129 354 
676 226 354 105 
677 74 334 170 
678 334 330 170 
679 334 122 330 
680 170 330 111 
681 76 335 287 
682 335 331 287 
683 335 124 331 
684 287 331 112 
685 75 333 187 
686 333 332 187 
687 333 123 332 
688 187 332 113 
689 93 355 351 
690 355 356 351 
691 355 130 356 
692 351 356 128 
693 128 356 353 
694 356 357 353 
695 356 130 357 
696 353 357 71 
697 73 336 305 
698 336 337 305 
699 336 121 337 
700 305 337 114 
701 71 357 301 
702 357 285 301 
703 357 130 285 
704 301 285 112 
705 92 339 329 
706 339 188 329 
707 339 129 188 
708 329 188 116 
709 115 288 328 
710 288 355 328 
711 288 130 355 
712 328 355 93 
$EndElements
